<svg xmlns="http://www.w3.org/2000/svg" width="880" height="250" viewBox="0 0 880 250"><style>
  .m { font-family: ui-monospace, SFMono-Regular, 'SF Mono', Menlo, Consolas, 'Liberation Mono', monospace; }
  .s { font-family: -apple-system, BlinkMacSystemFont, 'Segoe UI', 'Noto Sans', Helvetica, Arial, sans-serif; }
  .node { animation: lit 7.0s linear infinite; }@keyframes lit { 0% { stroke: #0969da; stroke-width: 2; } 10% { stroke: #d0d7de; stroke-width: 1; } 100% { stroke: #d0d7de; stroke-width: 1; } }
  @media (prefers-reduced-motion: reduce) { * { animation: none !important; } }
</style><rect x="0.5" y="0.5" width="879" height="249" rx="12" fill="#ffffff" stroke="#d0d7de"/><path d="M0.5 40 V12.5 a12 12 0 0 1 12 -12 H867.5 a12 12 0 0 1 12 12 V40 Z" fill="#f6f8fa"/><line x1="0.5" y1="40" x2="879.5" y2="40" stroke="#d0d7de"/><text x="20" y="25" class="m" font-size="13"><tspan fill="#1a7f37">$</tspan><tspan fill="#1f2328"> git push origin main</tspan></text><text x="860" y="25" text-anchor="end" class="m" font-size="12" fill="#656d76">how I ship</text><line x1="70" y1="112" x2="810" y2="112" stroke="#d0d7de" stroke-width="2" stroke-dasharray="4 6"/><rect class="node" style="animation-delay:0.00s" x="42.0" y="84" width="56" height="56" rx="14" fill="#f6f8fa" stroke="#d0d7de"/><svg x="56.0" y="98" width="28" height="28" viewBox="0 0 24 24"><path fill="#1f2328" d="M13.09 23.549a1.54 1.54 0 0 1-2.18 0L.451 13.089a1.54 1.54 0 0 1 0-2.179l7.191-7.19 2.733 2.733a1.85 1.85 0 0 0 .964 2.326v6.66a1.849 1.849 0 1 0 1.54 0V8.957l2.508 2.508a1.85 1.85 0 1 0 1.09-1.09l-2.634-2.634a1.85 1.85 0 0 0-2.378-2.377L8.73 2.63 10.91.451a1.54 1.54 0 0 1 2.179 0l10.459 10.46a1.54 1.54 0 0 1 0 2.179z"/></svg><text x="70.0" y="168" text-anchor="middle" class="s" font-size="14" font-weight="600" fill="#1f2328">Commit</text><text x="70.0" y="188" text-anchor="middle" class="m" font-size="11.5" fill="#656d76">Git</text><rect class="node" style="animation-delay:0.80s" x="147.7" y="84" width="56" height="56" rx="14" fill="#f6f8fa" stroke="#d0d7de"/><svg x="161.7" y="98" width="28" height="28" viewBox="0 0 24 24"><path fill="#1f2328" d="m23.6004 9.5927-.0337-.0862L20.3.9814a.851.851 0 0 0-.3362-.405.8748.8748 0 0 0-.9997.0539.8748.8748 0 0 0-.29.4399l-2.2055 6.748H7.5375l-2.2057-6.748a.8573.8573 0 0 0-.29-.4412.8748.8748 0 0 0-.9997-.0537.8585.8585 0 0 0-.3362.4049L.4332 9.5015l-.0325.0862a6.0657 6.0657 0 0 0 2.0119 7.0105l.0113.0087.03.0213 4.976 3.7264 2.462 1.8633 1.4995 1.1321a1.0085 1.0085 0 0 0 1.2197 0l1.4995-1.1321 2.4619-1.8633 5.006-3.7489.0125-.01a6.0682 6.0682 0 0 0 2.0094-7.003z"/></svg><text x="175.7" y="168" text-anchor="middle" class="s" font-size="14" font-weight="600" fill="#1f2328">Build</text><text x="175.7" y="188" text-anchor="middle" class="m" font-size="11.5" fill="#656d76">GitLab CI</text><rect class="node" style="animation-delay:1.60s" x="253.4" y="84" width="56" height="56" rx="14" fill="#f6f8fa" stroke="#d0d7de"/><svg x="267.4" y="98" width="28" height="28" viewBox="0 0 24 24"><path fill="#1f2328" d="M13.983 11.078h2.119a.186.186 0 00.186-.185V9.006a.186.186 0 00-.186-.186h-2.119a.185.185 0 00-.185.185v1.888c0 .102.083.185.185.185m-2.954-5.43h2.118a.186.186 0 00.186-.186V3.574a.186.186 0 00-.186-.185h-2.118a.185.185 0 00-.185.185v1.888c0 .102.082.185.185.185m0 2.716h2.118a.187.187 0 00.186-.186V6.29a.186.186 0 00-.186-.185h-2.118a.185.185 0 00-.185.185v1.887c0 .102.082.185.185.186m-2.93 0h2.12a.186.186 0 00.184-.186V6.29a.185.185 0 00-.185-.185H8.1a.185.185 0 00-.185.185v1.887c0 .102.083.185.185.186m-2.964 0h2.119a.186.186 0 00.185-.186V6.29a.185.185 0 00-.185-.185H5.136a.186.186 0 00-.186.185v1.887c0 .102.084.185.186.186m5.893 2.715h2.118a.186.186 0 00.186-.185V9.006a.186.186 0 00-.186-.186h-2.118a.185.185 0 00-.185.185v1.888c0 .102.082.185.185.185m-2.93 0h2.12a.185.185 0 00.184-.185V9.006a.185.185 0 00-.184-.186h-2.12a.185.185 0 00-.184.185v1.888c0 .102.083.185.185.185m-2.964 0h2.119a.185.185 0 00.185-.185V9.006a.185.185 0 00-.184-.186h-2.12a.186.186 0 00-.186.186v1.887c0 .102.084.185.186.185m-2.92 0h2.12a.185.185 0 00.184-.185V9.006a.185.185 0 00-.184-.186h-2.12a.185.185 0 00-.184.185v1.888c0 .102.082.185.185.185M23.763 9.89c-.065-.051-.672-.51-1.954-.51-.338.001-.676.03-1.01.087-.248-1.7-1.653-2.53-1.716-2.566l-.344-.199-.226.327c-.284.438-.49.922-.612 1.43-.23.97-.09 1.882.403 2.661-.595.332-1.55.413-1.744.42H.751a.751.751 0 00-.75.748 11.376 11.376 0 00.692 4.062c.545 1.428 1.355 2.48 2.41 3.124 1.18.723 3.1 1.137 5.275 1.137.983.003 1.963-.086 2.93-.266a12.248 12.248 0 003.823-1.389c.98-.567 1.86-1.288 2.61-2.136 1.252-1.418 1.998-2.997 2.553-4.4h.221c1.372 0 2.215-.549 2.68-1.009.309-.293.55-.65.707-1.046l.098-.288Z"/></svg><text x="281.4" y="168" text-anchor="middle" class="s" font-size="14" font-weight="600" fill="#1f2328">Package</text><text x="281.4" y="188" text-anchor="middle" class="m" font-size="11.5" fill="#656d76">Docker</text><rect class="node" style="animation-delay:2.40s" x="359.1" y="84" width="56" height="56" rx="14" fill="#f6f8fa" stroke="#d0d7de"/><svg x="373.1" y="98" width="28" height="28" viewBox="0 0 24 24"><path fill="#1f2328" d="M6.763 10.036c0 .296.032.535.088.71.064.176.144.368.256.576.04.063.056.127.056.183 0 .08-.048.16-.152.24l-.503.335a.383.383 0 0 1-.208.072c-.08 0-.16-.04-.239-.112a2.47 2.47 0 0 1-.287-.375 6.18 6.18 0 0 1-.248-.471c-.622.734-1.405 1.101-2.347 1.101-.67 0-1.205-.191-1.596-.574-.391-.384-.59-.894-.59-1.533 0-.678.239-1.23.726-1.644.487-.415 1.133-.623 1.955-.623.272 0 .551.024.846.064.296.04.6.104.918.176v-.583c0-.607-.127-1.03-.375-1.277-.255-.248-.686-.367-1.3-.367-.28 0-.568.031-.863.103-.295.072-.583.16-.862.272a2.287 2.287 0 0 1-.28.104.488.488 0 0 1-.127.023c-.112 0-.168-.08-.168-.247v-.391c0-.128.016-.224.056-.28a.597.597 0 0 1 .224-.167c.279-.144.614-.264 1.005-.36a4.84 4.84 0 0 1 1.246-.151c.95 0 1.644.216 2.091.647.439.43.662 1.085.662 1.963v2.586zm-3.24 1.214c.263 0 .534-.048.822-.144.287-.096.543-.271.758-.51.128-.152.224-.32.272-.512.047-.191.08-.423.08-.694v-.335a6.66 6.66 0 0 0-.735-.136 6.02 6.02 0 0 0-.75-.048c-.535 0-.926.104-1.19.32-.263.215-.39.518-.39.917 0 .375.095.655.295.846.191.2.47.296.838.296zm6.41.862c-.144 0-.24-.024-.304-.08-.064-.048-.12-.16-.168-.311L7.586 5.55a1.398 1.398 0 0 1-.072-.32c0-.128.064-.2.191-.2h.783c.151 0 .255.025.31.08.065.048.113.16.16.312l1.342 5.284 1.245-5.284c.04-.16.088-.264.151-.312a.549.549 0 0 1 .32-.08h.638c.152 0 .256.025.32.08.063.048.12.16.151.312l1.261 5.348 1.381-5.348c.048-.16.104-.264.16-.312a.52.52 0 0 1 .311-.08h.743c.127 0 .2.065.2.2 0 .04-.009.08-.017.128a1.137 1.137 0 0 1-.056.2l-1.923 6.17c-.048.16-.104.263-.168.311a.51.51 0 0 1-.303.08h-.687c-.151 0-.255-.024-.32-.08-.063-.056-.119-.16-.15-.32l-1.238-5.148-1.23 5.14c-.04.16-.087.264-.15.32-.065.056-.177.08-.32.08zm10.256.215c-.415 0-.83-.048-1.229-.143-.399-.096-.71-.2-.918-.32-.128-.071-.215-.151-.247-.223a.563.563 0 0 1-.048-.224v-.407c0-.167.064-.247.183-.247.048 0 .096.008.144.024.048.016.12.048.2.08.271.12.566.215.878.279.319.064.63.096.95.096.502 0 .894-.088 1.165-.264a.86.86 0 0 0 .415-.758.777.777 0 0 0-.215-.559c-.144-.151-.416-.287-.807-.415l-1.157-.36c-.583-.183-1.014-.454-1.277-.813a1.902 1.902 0 0 1-.4-1.158c0-.335.073-.63.216-.886.144-.255.335-.479.575-.654.24-.184.51-.32.83-.415.32-.096.655-.136 1.006-.136.175 0 .359.008.535.032.183.024.35.056.518.088.16.04.312.08.455.127.144.048.256.096.336.144a.69.69 0 0 1 .24.2.43.43 0 0 1 .071.263v.375c0 .168-.064.256-.184.256a.83.83 0 0 1-.303-.096 3.652 3.652 0 0 0-1.532-.311c-.455 0-.815.071-1.062.223-.248.152-.375.383-.375.71 0 .224.08.416.24.567.159.152.454.304.877.44l1.134.358c.574.184.99.44 1.237.767.247.327.367.702.367 1.117 0 .343-.072.655-.207.926-.144.272-.336.511-.583.703-.248.2-.543.343-.886.447-.36.111-.734.167-1.142.167zM21.698 16.207c-2.626 1.94-6.442 2.969-9.722 2.969-4.598 0-8.74-1.7-11.87-4.526-.247-.223-.024-.527.272-.351 3.384 1.963 7.559 3.153 11.877 3.153 2.914 0 6.114-.607 9.06-1.852.439-.2.814.287.383.607zM22.792 14.961c-.336-.43-2.22-.207-3.074-.103-.255.032-.295-.192-.063-.36 1.5-1.053 3.967-.75 4.254-.399.287.36-.08 2.826-1.485 4.007-.215.184-.423.088-.327-.151.32-.79 1.03-2.57.695-2.994z"/></svg><text x="387.1" y="168" text-anchor="middle" class="s" font-size="14" font-weight="600" fill="#1f2328">Store</text><text x="387.1" y="188" text-anchor="middle" class="m" font-size="11.5" fill="#656d76">Amazon ECR</text><rect class="node" style="animation-delay:3.20s" x="464.9" y="84" width="56" height="56" rx="14" fill="#f6f8fa" stroke="#d0d7de"/><svg x="478.9" y="98" width="28" height="28" viewBox="0 0 24 24"><path fill="#1f2328" d="M12.337 0c-.475 0-.861 1.016-.861 2.269 0 .527.069 1.011.183 1.396a8.514 8.514 0 0 0-3.961 1.22 5.229 5.229 0 0 0-.595-1.093c-.606-.866-1.34-1.436-1.79-1.43a.381.381 0 0 0-.217.066c-.39.273-.123 1.326.596 2.353.267.381.559.705.84.948a8.683 8.683 0 0 0-1.528 1.716h1.734a7.179 7.179 0 0 1 5.381-2.421 7.18 7.18 0 0 1 5.382 2.42h1.733a8.687 8.687 0 0 0-1.32-1.53c.35-.249.735-.643 1.078-1.133.719-1.027.986-2.08.596-2.353a.382.382 0 0 0-.217-.065c-.45-.007-1.184.563-1.79 1.43a4.897 4.897 0 0 0-.676 1.325 8.52 8.52 0 0 0-3.899-1.42c.12-.39.193-.887.193-1.429 0-1.253-.386-2.269-.862-2.269zM1.624 9.443v5.162h1.358v-1.968h1.64v1.968h1.357V9.443H4.62v1.838H2.98V9.443zm5.912 0v5.162h3.21v-1.108H8.893v-.95h1.64v-1.142h-1.64v-.84h1.853V9.443zm4.698 0v5.162h3.218v-1.362h-1.86v-3.8zm4.706 0v5.162h1.364v-2.643l1.357 1.225 1.35-1.232v2.65h1.365V9.443h-.614l-2.1 1.914-2.109-1.914zm-11.82 7.28a8.688 8.688 0 0 0 1.412 1.548 5.206 5.206 0 0 0-.841.948c-.719 1.027-.985 2.08-.596 2.353.39.273 1.289-.338 2.007-1.364a5.23 5.23 0 0 0 .595-1.092 8.514 8.514 0 0 0 3.961 1.219 5.01 5.01 0 0 0-.183 1.396c0 1.253.386 2.269.861 2.269.476 0 .862-1.016.862-2.269 0-.542-.072-1.04-.193-1.43a8.52 8.52 0 0 0 3.9-1.42c.121.4.352.865.675 1.327.719 1.026 1.617 1.637 2.007 1.364.39-.273.123-1.326-.596-2.353-.343-.49-.727-.885-1.077-1.135a8.69 8.69 0 0 0 1.202-1.36h-1.771a7.174 7.174 0 0 1-5.227 2.252 7.174 7.174 0 0 1-5.226-2.252z"/></svg><text x="492.9" y="168" text-anchor="middle" class="s" font-size="14" font-weight="600" fill="#1f2328">Template</text><text x="492.9" y="188" text-anchor="middle" class="m" font-size="11.5" fill="#656d76">Helm</text><rect class="node" style="animation-delay:4.00s" x="570.6" y="84" width="56" height="56" rx="14" fill="#f6f8fa" stroke="#d0d7de"/><svg x="584.6" y="98" width="28" height="28" viewBox="0 0 24 24"><path fill="#1f2328" d="M12.581 0c.436.037.871.1 1.299.186 1.679.383 3.121 1.213 4.382 2.365 1.161 1.06 1.917 2.372 2.335 3.881.089.321.216.56.586.624.205.035.238.245.239.43.003.646.002 1.294.002 1.94l-.002 1.21c-.001.356-.116.479-.466.474-.211-.003-.293.119-.344.291-.146.489-.33.966-.552 1.426-.818 1.682-2.084 2.938-3.688 3.87-.077.045-.155.088-.233.131-.252.137-.258.146-.155.415.114.299.358.529.664.625.269.096.553.134.827.21a.672.672 0 0 1 .236.094c-.066.082-.156.067-.231.082-.36.073-.713.184-1.086.17a1.275 1.275 0 0 1-.438-.064c-.114-.045-.152-.006-.176.109a5.354 5.354 0 0 0-.084.92c-.015.617-.071 1.23-.112 1.844-.042.598-.018.651.558.842.281.094.563.187.842.286.069.024.15.038.192.117-.04.057-.098.035-.146.035-.493.003-.985.005-1.478.001-.524-.005-.806-.282-.845-.803-.055-.762-.12-1.524-.182-2.286a.947.947 0 0 0-.026-.12c-.079.455-.065.879-.084 1.298-.023.528-.008 1.057-.007 1.584 0 .27.086.388.335.483.359.135.711.295 1.114.262.141-.012.276.062.402.129.032.017.073.033.069.073-.004.043-.049.047-.084.045-.657-.019-1.317.065-1.972-.028-.323-.046-.533-.236-.631-.552-.094-.303-.114-.617-.137-.93-.046-.626-.078-1.253-.116-1.88a.222.222 0 0 0-.061-.171.282.282 0 0 0-.031.193c-.002.956-.002 1.911-.001 2.866 0 .388.123.575.494.708.481.172.976.298 1.47.423.11.028.225.047.242.192h-1.852c-.051-.01-.103-.022-.155-.03-.701-.1-1.001-.372-1.143-1.042l-.067-.331-.226-1.103c-.069.12-.118.25-.144.386-.083.399-.151.802-.243 1.2-.113.493-.444.763-.932.857l-.33.063H8.558c.057-.171.216-.185.355-.221.476-.127.96-.223 1.417-.409a.603.603 0 0 0 .397-.521c.058-.435.002-.865-.013-1.296a1.528 1.528 0 0 0-.078-.315.405.405 0 0 0-.071.207c-.026.296-.049.591-.075.886-.038.432-.273.716-.679.81a1.702 1.702 0 0 1-.37.045c-.557.003-1.115-.001-1.673-.005-.048 0-.109.019-.148-.065.178-.103.377-.168.582-.187a5.67 5.67 0 0 0 .939-.193c.42-.114.522-.249.512-.687-.023-.931-.091-1.86-.069-2.791.004-.184.001-.368.001-.551a2.387 2.387 0 0 0-.05.385 40.299 40.299 0 0 1-.186 2.623c-.052.513-.296.748-.804.805-.446.051-.889.002-1.332-.02-.108-.006-.234.012-.339-.064.043-.066.106-.07.16-.087.362-.115.725-.224 1.086-.344.246-.081.35-.235.355-.492a2.241 2.241 0 0 0-.003-.232 45.315 45.315 0 0 1-.105-2.149 5.487 5.487 0 0 0-.035-.478c-.024-.188-.131-.287-.295-.258-.505.092-.99-.006-1.473-.139-.059-.016-.134-.007-.178-.088a.986.986 0 0 1 .285-.09c.255-.052.507-.121.753-.208.312-.112.564-.347.695-.651.089-.203.056-.317-.112-.398-1.418-.683-2.512-1.73-3.391-3.017a8.152 8.152 0 0 1-1.123-2.447c-.067-.246-.156-.3-.383-.26-.306.053-.401.006-.535-.273v-3.49c.144-.303.205-.341.534-.329.235.01.247-.004.309-.242.396-1.508 1.082-2.861 2.171-3.988C6.9 1.42 8.523.631 10.34.203c.456-.108.922-.15 1.387-.203h.854Zm7.974 8.948a7.34 7.34 0 0 0-.048-.938 8.353 8.353 0 0 0-.099-.65c-.598-2.964-2.344-5.02-5.051-6.268-1.553-.715-3.21-.835-4.878-.511-3.248.633-5.396 2.583-6.539 5.652-.436 1.173-.495 2.406-.37 3.65.087.935.339 1.846.745 2.694.585 1.213 1.444 2.207 2.477 3.058.343.286.719.528 1.121.719.235.111.247.105.245-.146.006-.16.003-.32-.009-.48-.125-1.02-.142-2.045-.169-3.069a.392.392 0 0 0-.184-.353c-.385-.268-.713-.592-.921-1.019-.474-.97-.372-2.361.813-3.215.136-.097.217-.19.198-.373a1.724 1.724 0 0 1 .031-.442c.177-1.187.748-2.138 1.722-2.84.68-.492 1.442-.772 2.286-.782.483-.007.953.11 1.414.244 1.609.467 2.846 2.07 2.845 3.697a.64.64 0 0 0 .268.565c.463.371.821.83.943 1.426.22 1.077-.083 1.982-.979 2.634-.266.194-.347.406-.333.698.002.047 0 .095-.002.142l-.062 1.439c-.025.586-.138 1.165-.117 1.754.008.223.006.226.201.128a7.46 7.46 0 0 0 2.393-1.903c1.32-1.577 2.074-3.372 2.059-5.511ZM9.117 12.102c1.489.021 2.443-1.578 1.716-2.879a1.937 1.937 0 0 0-1.699-.991c-1.094-.004-1.954.822-1.958 1.881-.005 1.148.813 1.985 1.941 1.989Zm5.794 0c1.101.002 1.935-.823 1.935-1.917 0-1.091-.846-1.949-1.92-1.947-1.064.003-1.94.866-1.943 1.915-.003 1.105.831 1.948 1.928 1.949Zm-1.472 1.937c-.208.128-.407.277-.63.384-.536.257-1.063.257-1.579-.048-.158-.094-.308-.201-.464-.298-.047-.028-.092-.103-.15-.062-.044.03-.01.1-.001.151.037.179.064.362.082.544.027.565.293.992.742 1.31a.984.984 0 0 0 .791.186c.565-.119 1.025-.614 1.124-1.218.043-.266.005-.544.109-.803a.133.133 0 0 0-.024-.146Zm-8.78-4.92c-.012-1.102.143-2.055.54-2.961.633-1.443 1.642-2.553 2.98-3.374a.378.378 0 0 1 .459.067c.06.06.036.118.01.178a1.09 1.09 0 0 1-.48.51c-1.079.639-1.829 1.571-2.357 2.688a6.325 6.325 0 0 0-.618 2.986c.055 1.309.439 2.516 1.213 3.588.088.104.148.23.173.365.01.08.059.168-.031.228a.312.312 0 0 1-.288.041.502.502 0 0 1-.234-.185c-.72-.979-1.193-2.056-1.331-3.273-.036-.326-.004-.653-.036-.858ZM8.94 2.34a.373.373 0 0 1 .378-.382c.211.001.409.226.416.473.004.138-.309.39-.476.386-.189-.005-.318-.2-.318-.477Zm-.465 7.48a.609.609 0 0 1 .586-.631c.38-.003.671.271.675.633.004.356-.27.622-.639.621-.38-.002-.621-.241-.622-.623Zm6.496.623c-.381-.002-.625-.255-.621-.646a.635.635 0 0 1 .596-.613.656.656 0 0 1 .669.643c.001.354-.275.618-.644.616Z"/></svg><text x="598.6" y="168" text-anchor="middle" class="s" font-size="14" font-weight="600" fill="#1f2328">Sync</text><text x="598.6" y="188" text-anchor="middle" class="m" font-size="11.5" fill="#656d76">Argo CD</text><rect class="node" style="animation-delay:4.80s" x="676.3" y="84" width="56" height="56" rx="14" fill="#f6f8fa" stroke="#d0d7de"/><svg x="690.3" y="98" width="28" height="28" viewBox="0 0 24 24"><path fill="#1f2328" d="M10.204 14.35l.007.01-.999 2.413a5.171 5.171 0 0 1-2.075-2.597l2.578-.437.004.005a.44.44 0 0 1 .484.606zm-.833-2.129a.44.44 0 0 0 .173-.756l.002-.011L7.585 9.7a5.143 5.143 0 0 0-.73 3.255l2.514-.725.002-.009zm1.145-1.98a.44.44 0 0 0 .699-.337l.01-.005.15-2.62a5.144 5.144 0 0 0-3.01 1.442l2.147 1.523.004-.002zm.76 2.75l.723.349.722-.347.18-.78-.5-.623h-.804l-.5.623.179.779zm1.5-3.095a.44.44 0 0 0 .7.336l.008.003 2.134-1.513a5.188 5.188 0 0 0-2.992-1.442l.148 2.615.002.001zm10.876 5.97l-5.773 7.181a1.6 1.6 0 0 1-1.248.594l-9.261.003a1.6 1.6 0 0 1-1.247-.596l-5.776-7.18a1.583 1.583 0 0 1-.307-1.34L2.1 5.573c.108-.47.425-.864.863-1.073L11.305.513a1.606 1.606 0 0 1 1.385 0l8.345 3.985c.438.209.755.604.863 1.073l2.062 8.955c.108.47-.005.963-.308 1.34zm-3.289-2.057c-.042-.01-.103-.026-.145-.034-.174-.033-.315-.025-.479-.038-.35-.037-.638-.067-.895-.148-.105-.04-.18-.165-.216-.216l-.201-.059a6.45 6.45 0 0 0-.105-2.332 6.465 6.465 0 0 0-.936-2.163c.052-.047.15-.133.177-.159.008-.09.001-.183.094-.282.197-.185.444-.338.743-.522.142-.084.273-.137.415-.242.032-.024.076-.062.11-.089.24-.191.295-.52.123-.736-.172-.216-.506-.236-.745-.045-.034.027-.08.062-.111.088-.134.116-.217.23-.33.35-.246.25-.45.458-.673.609-.097.056-.239.037-.303.033l-.19.135a6.545 6.545 0 0 0-4.146-2.003l-.012-.223c-.065-.062-.143-.115-.163-.25-.022-.268.015-.557.057-.905.023-.163.061-.298.068-.475.001-.04-.001-.099-.001-.142 0-.306-.224-.555-.5-.555-.275 0-.499.249-.499.555l.001.014c0 .041-.002.092 0 .128.006.177.044.312.067.475.042.348.078.637.056.906a.545.545 0 0 1-.162.258l-.012.211a6.424 6.424 0 0 0-4.166 2.003 8.373 8.373 0 0 1-.18-.128c-.09.012-.18.04-.297-.029-.223-.15-.427-.358-.673-.608-.113-.12-.195-.234-.329-.349-.03-.026-.077-.062-.111-.088a.594.594 0 0 0-.348-.132.481.481 0 0 0-.398.176c-.172.216-.117.546.123.737l.007.005.104.083c.142.105.272.159.414.242.299.185.546.338.743.522.076.082.09.226.1.288l.16.143a6.462 6.462 0 0 0-1.02 4.506l-.208.06c-.055.072-.133.184-.215.217-.257.081-.546.11-.895.147-.164.014-.305.006-.48.039-.037.007-.09.02-.133.03l-.004.002-.007.002c-.295.071-.484.342-.423.608.061.267.349.429.645.365l.007-.001.01-.003.129-.029c.17-.046.294-.113.448-.172.33-.118.604-.217.87-.256.112-.009.23.069.288.101l.217-.037a6.5 6.5 0 0 0 2.88 3.596l-.09.218c.033.084.069.199.044.282-.097.252-.263.517-.452.813-.091.136-.185.242-.268.399-.02.037-.045.095-.064.134-.128.275-.034.591.213.71.248.12.556-.007.69-.282v-.002c.02-.039.046-.09.062-.127.07-.162.094-.301.144-.458.132-.332.205-.68.387-.897.05-.06.13-.082.215-.105l.113-.205a6.453 6.453 0 0 0 4.609.012l.106.192c.086.028.18.042.256.155.136.232.229.507.342.84.05.156.074.295.145.457.016.037.043.09.062.129.133.276.442.402.69.282.247-.118.341-.435.213-.71-.02-.039-.045-.096-.065-.134-.083-.156-.177-.261-.268-.398-.19-.296-.346-.541-.443-.793-.04-.13.007-.21.038-.294-.018-.022-.059-.144-.083-.202a6.499 6.499 0 0 0 2.88-3.622c.064.01.176.03.213.038.075-.05.144-.114.28-.104.266.039.54.138.87.256.154.06.277.128.448.173.036.01.088.019.13.028l.009.003.007.001c.297.064.584-.098.645-.365.06-.266-.128-.537-.423-.608zM16.4 9.701l-1.95 1.746v.005a.44.44 0 0 0 .173.757l.003.01 2.526.728a5.199 5.199 0 0 0-.108-1.674A5.208 5.208 0 0 0 16.4 9.7zm-4.013 5.325a.437.437 0 0 0-.404-.232.44.44 0 0 0-.372.233h-.002l-1.268 2.292a5.164 5.164 0 0 0 3.326.003l-1.27-2.296h-.01zm1.888-1.293a.44.44 0 0 0-.27.036.44.44 0 0 0-.214.572l-.003.004 1.01 2.438a5.15 5.15 0 0 0 2.081-2.615l-2.6-.44-.004.005z"/></svg><text x="704.3" y="168" text-anchor="middle" class="s" font-size="14" font-weight="600" fill="#1f2328">Run</text><text x="704.3" y="188" text-anchor="middle" class="m" font-size="11.5" fill="#656d76">Kubernetes</text><rect class="node" style="animation-delay:5.60s" x="782.0" y="84" width="56" height="56" rx="14" fill="#f6f8fa" stroke="#d0d7de"/><svg x="796.0" y="98" width="28" height="28" viewBox="0 0 24 24"><path fill="#1f2328" d="M19.57 17.04l-1.997-1.316-1.665 2.782-1.937-.567-1.706 2.604.087.82 9.274-1.71-.538-5.794zm-8.649-2.498l1.488-.204c.241.108.409.15.697.223.45.117.97.23 1.741-.16.18-.088.553-.43.704-.625l6.096-1.106.622 7.527-10.444 1.882zm11.325-2.712l-.602.115L20.488 0 .789 2.285l2.427 19.693 2.306-.334c-.184-.263-.471-.581-.96-.989-.68-.564-.44-1.522-.039-2.127.53-1.022 3.26-2.322 3.106-3.956-.056-.594-.15-1.368-.702-1.898-.02.22.017.432.017.432s-.227-.289-.34-.683c-.112-.15-.2-.199-.319-.4-.085.233-.073.503-.073.503s-.186-.437-.216-.807c-.11.166-.137.48-.137.48s-.241-.69-.186-1.062c-.11-.323-.436-.965-.343-2.424.6.421 1.924.321 2.44-.439.171-.251.288-.939-.086-2.293-.24-.868-.835-2.16-1.066-2.651l-.028.02c.122.395.374 1.223.47 1.625.293 1.218.372 1.642.234 2.204-.116.488-.397.808-1.107 1.165-.71.358-1.653-.514-1.713-.562-.69-.55-1.224-1.447-1.284-1.883-.062-.477.275-.763.445-1.153-.243.07-.514.192-.514.192s.323-.334.722-.624c.165-.109.262-.178.436-.323a9.762 9.762 0 0 0-.456.003s.42-.227.855-.392c-.318-.014-.623-.003-.623-.003s.937-.419 1.678-.727c.509-.208 1.006-.147 1.286.257.367.53.752.817 1.569.996.501-.223.653-.337 1.284-.509.554-.61.99-.688.99-.688s-.216.198-.274.51c.314-.249.66-.455.66-.455s-.134.164-.259.426l.03.043c.366-.22.797-.394.797-.394s-.123.156-.268.358c.277-.002.838.012 1.056.037 1.285.028 1.552-1.374 2.045-1.55.618-.22.894-.353 1.947.68.903.888 1.609 2.477 1.259 2.833-.294.295-.874-.115-1.516-.916a3.466 3.466 0 0 1-.716-1.562 1.533 1.533 0 0 0-.497-.85s.23.51.23.96c0 .246.03 1.165.424 1.68-.039.076-.057.374-.1.43-.458-.554-1.443-.95-1.604-1.067.544.445 1.793 1.468 2.273 2.449.453.927.186 1.777.416 1.997.065.063.976 1.197 1.15 1.767.306.994.019 2.038-.381 2.685l-1.117.174c-.163-.045-.273-.068-.42-.153.08-.143.241-.5.243-.572l-.063-.111c-.348.492-.93.97-1.414 1.245-.633.359-1.363.304-1.838.156-1.348-.415-2.623-1.327-2.93-1.566 0 0-.01.191.048.234.34.383 1.119 1.077 1.872 1.56l-1.605.177.759 5.908c-.337.048-.39.071-.757.124-.325-1.147-.946-1.895-1.624-2.332-.599-.384-1.424-.47-2.214-.314l-.05.059a2.851 2.851 0 0 1 1.863.444c.654.413 1.181 1.481 1.375 2.124.248.822.42 1.7-.248 2.632-.476.662-1.864 1.028-2.986.237.3.481.705.876 1.25.95.809.11 1.577-.03 2.106-.574.452-.464.69-1.434.628-2.456l.714-.104.258 1.834 11.827-1.424zM15.05 6.848c-.034.075-.085.125-.007.37l.004.014.013.032.032.073c.14.287.295.558.552.696.067-.011.136-.019.207-.023.242-.01.395.028.492.08.009-.048.01-.119.005-.222-.018-.364.072-.982-.626-1.308-.264-.122-.634-.084-.757.068a.302.302 0 0 1 .058.013c.186.066.06.13.027.207m1.958 3.392c-.092-.05-.52-.03-.821.005-.574.068-1.193.267-1.328.372-.247.191-.135.523.047.66.511.382.96.638 1.432.575.29-.038.546-.497.728-.914.124-.288.124-.598-.058-.698m-5.077-2.942c.162-.154-.805-.355-1.556.156-.554.378-.571 1.187-.041 1.646.053.046.096.078.137.104a4.77 4.77 0 0 1 1.396-.412c.113-.125.243-.345.21-.745-.044-.542-.455-.456-.146-.749"/></svg><text x="810.0" y="168" text-anchor="middle" class="s" font-size="14" font-weight="600" fill="#1f2328">Observe</text><text x="810.0" y="188" text-anchor="middle" class="m" font-size="11.5" fill="#656d76">Datadog</text><circle r="5" fill="#0969da"><animateMotion dur="7.0s" repeatCount="indefinite" keyPoints="0;1;1" keyTimes="0;0.800;1" calcMode="linear" path="M70,112 H810"/></circle><text x="440.0" y="230" text-anchor="middle" class="m" font-size="12" fill="#656d76">merge → build → image → registry → chart → GitOps sync → cluster → dashboards</text></svg>
